<svg width="130" height="44" viewBox="0 0 130 44" fill="none" xmlns="http://www.w3.org/2000/svg">
<path d="M31.9772 1.25046C32.5181 0.873242 33.1121 0.684631 33.7568 0.684631C34.7227 0.684631 35.5871 1.02463 36.3502 1.70214C37.1108 2.37965 37.4923 3.2011 37.4923 4.16401C37.4923 4.61568 37.374 5.11203 37.1397 5.65553L30.0189 21.3326C29.6954 22.0845 29.2052 22.6653 28.546 23.0723C27.8868 23.4793 27.1624 23.6828 26.3704 23.6828C25.5784 23.6828 24.8612 23.4793 24.2165 23.0723C23.5718 22.6653 23.0889 22.087 22.7653 21.3326L18.5904 11.8003L14.6787 21.3326C14.3865 22.0845 13.9084 22.6653 13.2492 23.0723C12.59 23.4793 11.8656 23.6828 11.0736 23.6828C10.2816 23.6828 9.55719 23.4793 8.89799 23.0723C8.23879 22.6653 7.73413 22.087 7.38159 21.3326L0.306661 5.65553C0.101415 5.20385 0 4.7224 0 4.20868C0 3.21599 0.403247 2.37965 1.20974 1.70214C2.01382 1.02463 2.91448 0.684631 3.91173 0.684631C4.6144 0.684631 5.25187 0.873242 5.82414 1.25046C6.39641 1.62769 6.82863 2.20593 7.12081 2.99015L11.2957 13.4258L15.56 3.03482C15.8522 2.28286 16.3061 1.70958 16.9219 1.31747C17.5376 0.925359 18.1968 0.729302 18.8995 0.729302C19.6021 0.729302 20.2613 0.925359 20.8771 1.31747C21.4928 1.70958 21.9468 2.28286 22.2389 3.03482L26.6336 13.4705L30.724 2.94548C31.0162 2.19352 31.4339 1.62769 31.9772 1.25046Z" fill="#E44042"/>
<path d="M42.6137 22.3029C40.8124 21.3549 39.4192 20.0073 38.4388 18.2602C37.4561 16.5131 36.9659 14.4656 36.9659 12.1155C36.9659 9.76526 37.4561 7.72528 38.4388 5.99304C39.4192 4.2608 40.8052 2.92811 42.592 1.99498C44.3789 1.06186 46.4748 0.595291 48.8774 0.595291C51.2799 0.595291 53.3758 1.06186 55.1627 1.99498C56.9495 2.92811 58.3355 4.2608 59.3159 5.99304C60.2962 7.72528 60.7888 9.76526 60.7888 12.1155C60.7888 14.4656 60.2987 16.5131 59.3159 18.2602C58.3331 20.0073 56.9495 21.3549 55.1627 22.3029C53.3758 23.2509 51.2799 23.725 48.8774 23.725C46.4748 23.725 44.4151 23.2509 42.6137 22.3029ZM53.0523 12.1155C53.0523 8.38046 51.659 6.5142 48.8774 6.5142C46.0957 6.5142 44.7024 8.38294 44.7024 12.1155C44.7024 15.848 46.0933 17.7167 48.8774 17.7167C51.6614 17.7167 53.0523 15.8504 53.0523 12.1155Z" fill="#E44042"/>
<path d="M81.4268 2.06447C82.8781 3.04475 84.0057 4.42211 84.8122 6.19902C85.6187 7.97594 86.0219 10.0085 86.0219 12.2991C86.0219 14.5897 85.6187 16.5974 84.8122 18.3297C84.0057 20.0619 82.8853 21.3946 81.4486 22.3277C80.0119 23.2609 78.3554 23.7274 76.4816 23.7274C75.1029 23.7274 73.8376 23.442 72.6786 22.8688C71.5195 22.298 70.6189 21.5286 69.9742 20.5657V28.2467C69.9742 29.3014 69.6216 30.1452 68.919 30.7755C68.2163 31.4084 67.2915 31.7236 66.1494 31.7236C64.9469 31.7236 63.981 31.3836 63.2494 30.706C62.5177 30.0285 62.1507 29.1624 62.1507 28.1077V4.38985C62.1507 3.27555 62.496 2.37965 63.1842 1.70214C63.8723 1.02463 64.802 0.684633 65.9755 0.684633C67.149 0.684633 67.9893 0.984922 68.6799 1.58798C69.3681 2.19104 69.7568 2.98767 69.8438 3.98284C70.4595 2.92811 71.3602 2.1017 72.5482 1.49864C73.7338 0.89558 75.0449 0.595291 76.4816 0.595291C78.3288 0.595291 79.9756 1.08419 81.4268 2.06447ZM77.206 16.317C77.9232 15.3839 78.283 14.0438 78.283 12.2966C78.283 10.4601 77.9159 9.05052 77.1843 8.07273C76.4527 7.09493 75.412 6.60354 74.0646 6.60354C72.7172 6.60354 71.6765 7.085 70.9448 8.05039C70.2132 9.01578 69.8462 10.4006 69.8462 12.2073C69.8462 14.014 70.2132 15.3467 70.9448 16.2947C71.6765 17.2427 72.7317 17.7167 74.1105 17.7167C75.4892 17.7167 76.4913 17.2501 77.2085 16.317H77.206Z" fill="#E44042"/>
<path d="M108.174 1.67981C108.877 2.34243 109.229 3.24578 109.229 4.38985V20.0222C109.229 21.077 108.862 21.9431 108.13 22.6206C107.399 23.2981 106.445 23.6381 105.274 23.6381C104.219 23.6381 103.354 23.3453 102.681 22.7571C102.007 22.1689 101.654 21.3797 101.625 20.3846C100.952 21.4691 100.095 22.298 99.0538 22.8688C98.0131 23.4396 96.8178 23.7274 95.4705 23.7274C92.6864 23.7274 90.6194 22.9358 89.2721 21.3549C87.9247 19.7741 87.251 17.3718 87.251 14.148V4.38985C87.251 3.24578 87.6035 2.34243 88.3062 1.67981C89.0089 1.01719 89.9602 0.687119 91.1627 0.687119C92.3652 0.687119 93.3166 1.01967 94.0193 1.67981C94.7219 2.34243 95.0745 3.24578 95.0745 4.38985V14.3292C95.0745 16.4982 95.9824 17.5827 97.8006 17.5827C98.8558 17.5827 99.7203 17.1906 100.394 16.4088C101.068 15.6271 101.406 14.6021 101.406 13.3365V4.38985C101.406 3.24578 101.758 2.34243 102.461 1.67981C103.164 1.01719 104.117 0.687119 105.317 0.687119C106.517 0.687119 107.471 1.01967 108.174 1.67981Z" fill="#E44042"/>
<path d="M115.162 23.2733C113.815 22.973 112.627 22.4915 111.603 21.8289C111.192 21.618 110.871 21.2581 110.637 20.7444C110.403 20.2332 110.284 19.6599 110.284 19.0271C110.284 18.213 110.497 17.543 110.922 17.0169C111.347 16.4907 111.88 16.2252 112.525 16.2252C112.965 16.2252 113.375 16.2773 113.757 16.384C114.138 16.4907 114.607 16.662 115.162 16.9027C116.099 17.2352 116.927 17.4909 117.647 17.6695C118.364 17.8507 119.279 17.9401 120.394 17.9401C121.187 17.9401 121.807 17.8259 122.263 17.6001C122.717 17.3742 122.944 17.0516 122.944 16.6297C122.944 16.2996 122.833 16.0415 122.614 15.8629C122.394 15.6817 121.976 15.508 121.36 15.3442C120.745 15.1779 119.704 14.9446 118.241 14.6443C115.633 14.1331 113.749 13.3563 112.593 12.319C111.434 11.2791 110.857 9.81241 110.857 7.91389C110.857 6.52909 111.274 5.2783 112.11 4.16401C112.945 3.04972 114.095 2.17615 115.56 1.54331C117.026 0.91047 118.666 0.595291 120.484 0.595291C121.802 0.595291 123.084 0.761567 124.33 1.09164C125.576 1.42419 126.682 1.89075 127.648 2.49133C128.556 3.03234 129.01 3.90839 129.01 5.11203C129.01 5.95581 128.79 6.66311 128.351 7.23638C127.911 7.80966 127.368 8.09506 126.723 8.09506C125.96 8.09506 125.052 7.83944 123.997 7.32821C123.294 6.99814 122.672 6.74748 122.128 6.58369C121.585 6.41741 120.947 6.33552 120.216 6.33552C119.484 6.33552 118.912 6.4472 118.501 6.67551C118.091 6.90135 117.886 7.22646 117.886 7.64587C117.886 8.12732 118.171 8.50454 118.743 8.77505C119.315 9.04556 120.45 9.34833 122.15 9.6784C124.992 10.1896 126.999 10.9664 128.172 12.0038C129.343 13.0436 129.93 14.5426 129.93 16.4982C129.93 18.697 129.044 20.4516 127.271 21.7619C125.499 23.0723 123.118 23.7274 120.129 23.7274C118.166 23.7274 116.509 23.5761 115.162 23.2758V23.2733Z" fill="#E44042"/>
<path d="M94.4181 42.1644H102.151V43.669H94.4181V42.1644Z" fill="#E44042"/>
<path d="M104.597 42.4786C104.091 41.7044 103.838 40.5265 103.838 38.9406C103.838 37.182 104.14 35.9104 104.741 35.1237C105.343 34.3371 106.306 33.9437 107.633 33.9437C108.271 33.9437 108.975 34.0311 109.747 34.2039V30.2122H111.427V43.4338H109.747V42.8761C108.807 43.3839 107.928 43.6378 107.108 43.6378C105.94 43.6378 105.104 43.2507 104.597 42.4765V42.4786ZM108.447 41.95C108.819 41.8626 109.145 41.7648 109.423 41.6524L109.749 41.5233V35.6732C109.002 35.5254 108.364 35.4505 107.833 35.4505C107.003 35.4505 106.418 35.7106 106.08 36.2309C105.741 36.7512 105.573 37.6232 105.573 38.849C105.573 39.9625 105.715 40.7804 105.999 41.3006C106.282 41.8209 106.766 42.0811 107.453 42.0811C107.742 42.0811 108.072 42.0374 108.447 41.9521V41.95Z" fill="white"/>
<path d="M114.281 42.5348C113.689 41.7981 113.396 40.6305 113.396 39.0343C113.396 37.3131 113.712 36.0353 114.343 35.1987C114.975 34.3621 115.955 33.9458 117.279 33.9458C119.738 33.9458 120.965 35.3818 120.965 38.2538L120.855 39.5171H115.093C115.105 40.1852 115.19 40.7034 115.346 41.0676C115.502 41.4339 115.755 41.6961 116.105 41.8563C116.453 42.0166 116.947 42.0977 117.587 42.0977C117.96 42.0977 118.383 42.0894 118.853 42.0707C119.323 42.052 119.744 42.0249 120.118 41.9874L120.625 41.9313L120.661 43.2674C119.252 43.515 118.114 43.6378 117.247 43.6378C115.862 43.6378 114.874 43.2694 114.285 42.5327L114.281 42.5348ZM119.286 38.1623C119.286 37.1591 119.132 36.4474 118.824 36.027C118.517 35.6066 118.002 35.3964 117.279 35.3964C116.52 35.3964 115.967 35.617 115.617 36.0561C115.267 36.4952 115.086 37.1987 115.074 38.1643H119.284L119.286 38.1623Z" fill="white"/>
<path d="M121.995 34.1519H123.765L125.681 41.9521H126.294L128.283 34.1519H130L127.578 43.4359H124.417L121.995 34.1519Z" fill="white"/>
</svg>
